# xmcd CD database file
#
# Track frame offsets:
#	150
#	14560
#	27467
#	40760
#	54705
#	63667
#	74747
#	88880
#	100657
#	110155
#	120965
#	134845
#	144980
#	158085
#	170407
#
# Disc length: 2362 seconds
#
# Revision: 0
# Processed by: cddbd v1.5.2PL0 Copyright (c) Steve Scherf et al.
# Submitted via: CDex 1.50
#
DISCID=de09380f
DTITLE=Various Artist - Doggone Country: Favorite Songs About Dogs
DYEAR=2000
DGENRE=Country
TTITLE0=Wylie Gustufson and Layne Brooks - Where Has My Little Dog Gone?
TTITLE1=Jesse Lee Jones - I Found My Best Friend In The Dog Pound
TTITLE2=Eddie Adcock Band - Dog
TTITLE3=Jesse Lee Jones - Hound Dog
TTITLE4=Layne Brooks - Old Blue
TTITLE5=The Osborne Brothers - Tennessee Hound Dog
TTITLE6=Martin David - Dad Gave My Dog Away
TTITLE7=Layne Brooks - The Poodle Dog Song
TTITLE8=Gandpa Jones - Old Rattler
TTITLE9=Leroy Troy - Got Gotta Quit Kickin' My Dog Around
TTITLE10=Redd Volkaert - Blind Boy's Dog
TTITLE11=Wylie Gustufson - How Much Is That Doggie In The Window?
TTITLE12=Layne Brooks - A Politician's Dog
TTITLE13=The Stonemans - Old Sheep
TTITLE14=Wailon Wood - Fox Chase
EXTD=YEAR: 2000
EXTT0=
EXTT1=
EXTT2=
EXTT3=
EXTT4=
EXTT5=
EXTT6=
EXTT7=
EXTT8=
EXTT9=
EXTT10=
EXTT11=
EXTT12=
EXTT13=
EXTT14=
PLAYORDER=
